<?xml version="1.0" encoding="utf-8"?>
<!-- Generator: Adobe Illustrator 25.1.0, SVG Export Plug-In . SVG Version: 6.00 Build 0)  -->
<svg version="1.1" id="Laag_1" xmlns="http://www.w3.org/2000/svg" xmlns:xlink="http://www.w3.org/1999/xlink" x="0px" y="0px"
	 viewBox="0 0 310.8 310.8" style="enable-background:new 0 0 310.8 310.8;" xml:space="preserve">
<style type="text/css">
	.st0{fill:#FFFFFF;}
	.st1{fill:none;}
	.st2{fill:url(#SVGID_1_);}
	.st3{fill:#E30613;}
	.st4{fill:#010101;}
	.st5{fill:#030303;}
	.st6{fill:#040404;}
	.st7{fill:#050505;}
	.st8{fill:#060606;}
	.st9{fill:#080808;}
	.st10{fill:#090909;}
	.st11{fill:#0A0A0A;}
	.st12{fill:#0B0B0B;}
	.st13{fill:#0D0D0D;}
	.st14{fill:#0E0E0E;}
	.st15{fill:#0F0F0F;}
	.st16{fill:#101010;}
	.st17{fill:#121212;}
	.st18{fill:#131313;}
	.st19{fill:#141414;}
	.st20{fill:#151515;}
	.st21{fill:#171717;}
	.st22{fill:#181818;}
	.st23{fill:#191919;}
	.st24{fill:#1A1A1A;}
	.st25{fill:#1C1C1C;}
	.st26{fill:#1D1D1D;}
	.st27{fill:#1E1E1E;}
	.st28{fill:#1F1F1F;}
	.st29{fill:#212121;}
	.st30{fill:#222222;}
	.st31{fill:#232323;}
	.st32{fill:#242424;}
	.st33{fill:#262626;}
	.st34{fill:#272727;}
	.st35{fill:#282828;}
	.st36{fill:#292929;}
	.st37{fill:#2B2B2B;}
	.st38{fill:#2C2C2C;}
	.st39{fill:#2D2D2D;}
	.st40{fill:#2E2E2E;}
	.st41{fill:#2F2F2F;}
	.st42{fill:#313131;}
	.st43{fill:#323232;}
	.st44{fill:#333333;}
	.st45{fill:#343434;}
	.st46{fill:#363636;}
	.st47{fill:#373737;}
	.st48{fill:#383838;}
	.st49{fill:#393939;}
	.st50{fill:#3A3A3A;}
	.st51{fill:#3C3C3C;}
	.st52{fill:#3D3D3D;}
	.st53{fill:#3E3E3E;}
	.st54{fill:#3F3F3F;}
	.st55{fill:#404040;}
	.st56{fill:#424242;}
	.st57{fill:#434343;}
	.st58{fill:#444444;}
	.st59{fill:#454545;}
	.st60{fill:#464646;}
	.st61{fill:#484848;}
	.st62{fill:#494949;}
	.st63{fill:#4A4A4A;}
	.st64{fill:#4B4B4B;}
	.st65{fill:#4C4C4C;}
	.st66{fill:#4E4E4E;}
	.st67{fill:#4F4F4F;}
	.st68{fill:#505050;}
	.st69{fill:#515151;}
	.st70{fill:#525252;}
	.st71{fill:#535353;}
	.st72{fill:#555555;}
	.st73{fill:#565656;}
	.st74{fill:#575757;}
	.st75{fill:#585858;}
	.st76{fill:#595959;}
	.st77{fill:#5A5A5A;}
	.st78{fill:#5C5C5C;}
	.st79{fill:#5D5D5D;}
	.st80{fill:#5E5E5E;}
	.st81{fill:#5F5F5F;}
	.st82{fill:#606060;}
	.st83{fill:#616161;}
	.st84{fill:#636363;}
	.st85{fill:#646464;}
	.st86{fill:#656565;}
	.st87{fill:#666666;}
	.st88{fill:#676767;}
	.st89{fill:#686868;}
	.st90{fill:#696969;}
	.st91{fill:#6B6B6B;}
	.st92{fill:#6C6C6C;}
	.st93{fill:#6D6D6D;}
	.st94{fill:#6E6E6E;}
	.st95{fill:#6F6F6F;}
	.st96{fill:#707070;}
	.st97{fill:#717171;}
	.st98{fill:#727272;}
	.st99{fill:#747474;}
	.st100{fill:#757575;}
	.st101{fill:#767676;}
	.st102{fill:#777777;}
	.st103{fill:#787878;}
	.st104{fill:#797979;}
	.st105{fill:#7A7A7A;}
	.st106{fill:#7B7B7B;}
	.st107{fill:#7C7C7C;}
	.st108{fill:#7E7E7E;}
	.st109{fill:#7F7F7F;}
	.st110{fill:#808080;}
	.st111{fill:#818181;}
	.st112{fill:#828282;}
	.st113{fill:#838383;}
	.st114{fill:#848484;}
	.st115{fill:#858585;}
	.st116{fill:#868686;}
	.st117{fill:#878787;}
	.st118{fill:#898989;}
	.st119{fill:#8A8A8A;}
	.st120{fill:#8B8B8B;}
	.st121{fill:#8C8C8C;}
	.st122{fill:#8D8D8D;}
	.st123{fill:#8E8E8E;}
	.st124{fill:#8F8F8F;}
	.st125{fill:#909090;}
	.st126{fill:#919191;}
	.st127{fill:#929292;}
	.st128{fill:#939393;}
	.st129{fill:#949494;}
	.st130{fill:#959595;}
	.st131{fill:#969696;}
	.st132{fill:#979797;}
	.st133{fill:#999999;}
	.st134{fill:#9A9A9A;}
	.st135{fill:#9B9B9B;}
	.st136{fill:#9C9C9C;}
	.st137{fill:#9D9D9D;}
	.st138{fill:#9E9E9E;}
	.st139{fill:#9F9F9F;}
	.st140{fill:#A0A0A0;}
	.st141{fill:#A1A1A1;}
	.st142{fill:#A2A2A2;}
	.st143{fill:#A3A3A3;}
	.st144{fill:#A4A4A4;}
	.st145{fill:#A5A5A5;}
	.st146{fill:#A6A6A6;}
	.st147{fill:#A7A7A7;}
	.st148{fill:#A8A8A8;}
	.st149{fill:#A9A9A9;}
	.st150{fill:#AAAAAA;}
	.st151{fill:#ABABAB;}
	.st152{fill:#ACACAC;}
	.st153{fill:#ADADAD;}
	.st154{fill:#AEAEAE;}
	.st155{fill:#AFAFAF;}
	.st156{fill:#B0B0B0;}
	.st157{fill:#B1B1B1;}
	.st158{fill:#B2B2B2;}
	.st159{fill:#B3B3B3;}
	.st160{fill:#B4B4B4;}
	.st161{fill:#B5B5B5;}
	.st162{fill:#B6B6B6;}
	.st163{fill:#B7B7B7;}
	.st164{fill:#B8B8B8;}
	.st165{fill:#B9B9B9;}
	.st166{fill:#BABABA;}
	.st167{fill:#BBBBBB;}
	.st168{fill:#BCBCBC;}
	.st169{fill:#BDBDBD;}
	.st170{fill:#BEBEBE;}
	.st171{fill:#BFBFBF;}
	.st172{fill:#C0C0C0;}
	.st173{fill:#C1C1C1;}
	.st174{fill:#C2C2C2;}
	.st175{fill:#C3C3C3;}
	.st176{fill:#C4C4C4;}
	.st177{fill:#C5C5C5;}
	.st178{fill:#C6C6C6;}
	.st179{fill:#C7C7C7;}
	.st180{fill:#C8C8C8;}
	.st181{fill:#C9C9C9;}
	.st182{fill:#CACACA;}
	.st183{fill:#CBCBCB;}
	.st184{fill:#CCCCCC;}
	.st185{fill:#CDCDCD;}
	.st186{fill:#CECECE;}
	.st187{fill:#CFCFCF;}
	.st188{fill:#D0D0D0;}
	.st189{fill:#D1D1D1;}
	.st190{fill:#D2D2D2;}
	.st191{fill:#D3D3D3;}
	.st192{fill:#D4D4D4;}
	.st193{fill:#D5D5D5;}
	.st194{fill:#D6D6D6;}
	.st195{fill:#D7D7D7;}
	.st196{fill:#D8D8D8;}
	.st197{fill:#D9D9D9;}
	.st198{fill:#DADADA;}
	.st199{fill:#DBDBDB;}
	.st200{fill:#DCDCDC;}
	.st201{fill:#DDDDDD;}
	.st202{fill:#DEDEDE;}
	.st203{fill:#DFDFDF;}
	.st204{fill:#E0E0E0;}
	.st205{fill:#E1E1E1;}
	.st206{fill:#E2E2E2;}
	.st207{fill:#E3E3E3;}
	.st208{fill:#E4E4E4;}
	.st209{fill:#E5E5E5;}
	.st210{fill:#E6E6E6;}
	.st211{fill:#E7E7E7;}
	.st212{fill:#E8E8E8;}
	.st213{fill:#E9E9E9;}
	.st214{fill:#EAEAEA;}
	.st215{fill:#EBEBEB;}
	.st216{fill:#ECECEC;}
	.st217{fill:#EDEDED;}
	.st218{fill:#EEEEEE;}
	.st219{fill:#EFEFEF;}
	.st220{fill:#F0F0F0;}
	.st221{fill:#F1F1F1;}
	.st222{fill:#F2F2F2;}
	.st223{fill:#F3F3F3;}
	.st224{fill:#F4F4F4;}
	.st225{fill:#F5F5F5;}
	.st226{fill:#F6F6F6;}
	.st227{fill:#F7F7F7;}
	.st228{fill:#F8F8F8;}
	.st229{fill:#F9F9F9;}
	.st230{fill:#FAFAFA;}
	.st231{fill:#FBFBFB;}
	.st232{fill:#FCFCFC;}
	.st233{fill:#FDFDFD;}
	.st234{fill:#FEFEFE;}
	.st235{fill:url(#SVGID_2_);}
	.st236{fill:#989898;}
	.st237{fill:#888888;}
	.st238{fill:#7D7D7D;}
	.st239{fill:#737373;}
	.st240{fill:#6A6A6A;}
	.st241{fill:#626262;}
	.st242{fill:#5B5B5B;}
	.st243{fill:#545454;}
	.st244{fill:#4D4D4D;}
	.st245{fill:#474747;}
	.st246{fill:#414141;}
	.st247{fill:#3B3B3B;}
	.st248{fill:#353535;}
	.st249{fill:#303030;}
	.st250{fill:#2A2A2A;}
	.st251{fill:#252525;}
	.st252{fill:#202020;}
	.st253{fill:#1B1B1B;}
	.st254{fill:#161616;}
	.st255{fill:#111111;}
	.st256{fill:#0C0C0C;}
	.st257{fill:#070707;}
	.st258{fill:#020202;}
	.st259{fill:url(#SVGID_3_);}
	.st260{fill:url(#SVGID_4_);}
	.st261{fill:url(#SVGID_5_);}
	.st262{fill:#FFFFFF;stroke:#FFFFFF;stroke-width:0.25;stroke-miterlimit:10;}
	.st263{opacity:0.3;fill:#FFFFFF;}
	.st264{fill:url(#SVGID_6_);}
	.st265{opacity:0.3;}
</style>
<path class="st263" d="M212.4,105.4c-1.3-0.9-2.8-1.4-4.3-1.4c-3.2,0-6.5,0.6-9.8,1.9c-3.3,1.3-6.6,3-9.8,5.1
	c-3.2,2.1-6.4,4.6-9.4,7.3c-3,2.8-5.9,5.6-8.5,8.7c-2.7,3-5.1,6-7.4,9c-2.2,3-4.2,5.7-5.9,8.2h-15.9c7.6-13,14.7-22.7,21.1-29
	c6.4-6.3,14.5-13.2,20.2-13.2c1.9,0,3.3-0.1,4.3-0.2c1-0.1,1.4-0.7,1.4-1.5c0-0.4-0.2-0.7-0.6-0.9c-0.4-0.1-0.7-0.2-1.1-0.2
	c-1.3,0-2.5,0.3-3.9,0.8c-1.3,0.5-3,0.8-5,0.8c-5.7,0-10.4,0.6-16.2,1.2c-6,0.6-10.9,1.4-16.6,2.7c-5.8,1.3-13.5,3.8-18.2,5.8
	c-4.6,1.9-9.6,3.5-13.2,5.6c-3.6,2.1-6.4,4.6-8.4,7.5c-2.1,2.9-3.1,6.1-3.1,9.7c0,3.2,1.3,6,3.8,8.3c2.5,2.3,6.1,3.4,10.6,3.4
	c2.2,0,4.4-0.4,6.7-1.2c2.3-0.8,4.4-1.9,6.2-3.3c1.9-1.4,3.4-3.1,4.6-5.1c1.2-1.9,1.8-4.1,1.8-6.6c0-1.9-0.4-3.6-1.2-5l-1.3,0.1
	c0.4,0.7,0.7,1.5,0.9,2.2c0.2,0.7,0.3,1.7,0.3,2.9c0,2.1-0.6,4.1-1.7,5.9c-1.1,1.8-2.5,3.3-4.2,4.6c-1.7,1.3-3.5,2.3-5.6,3
	c-2,0.7-4,1-5.9,1c-1.5,0-2.9-0.3-4.1-0.8c-1.2-0.6-2.1-1.2-2.9-2.1c-0.7-0.8-1.3-1.8-1.7-2.9c-0.4-1.1-0.6-2.2-0.6-3.3
	c0-4.3,1.6-8.2,4.9-11.7c3.2-3.5,7.8-6.5,13.7-9c5.9-2.5,16.5-7.3,24.9-8.9c8.2-1.5,15.6-2.8,25.7-2.8v0.2
	c-5.2,1.2-11.8,6.8-15.8,9.4c-4,2.6-7.6,5.7-10.8,9.3c-3.2,3.5-6.2,7.4-8.9,11.5c-2.7,4.2-5.4,8.3-8,12.4c-1.5,2.4-3.2,5-4.9,7.8
	c-1.7,2.8-3.4,5.5-5.2,8.3c-1.8,2.7-3.6,5.4-5.5,7.9c-1.9,2.6-3.9,4.8-5.9,6.7c-2,1.9-4.1,3.5-6.3,4.6c-2.2,1.2-4.4,1.8-6.8,1.8
	c-1.7,0-3.2-0.3-4.6-0.9c-1.4-0.6-2.2-1.4-2.6-2.5c1,0,1.9-0.3,2.5-0.9c0.6-0.6,0.9-1.5,0.9-2.6c0-1-0.3-1.9-1-2.5
	c-0.7-0.7-1.5-1-2.6-1c-1.3,0-2.3,0.4-3.2,1.2c-0.9,0.8-1.3,1.8-1.3,3.1c0,1.4,0.4,2.6,1.2,3.5c0.8,1,1.7,1.7,2.9,2.3
	c1.1,0.6,2.4,1,3.7,1.3c1.3,0.3,2.5,0.4,3.6,0.4c4.9,0,9.4-1.3,13.6-3.9c4.2-2.6,8-5.8,11.5-9.6c3.5-3.8,6.7-7.9,9.5-12.3
	c2.8-4.4,5.3-8.4,7.6-11.9h15.9c-1.1,1.8-3.6,6.8-4.8,9c-1.2,2.2-2.4,4.5-3.4,7c-1,2.4-1.9,4.9-2.6,7.6c-0.7,2.6-1,5.2-1,7.8
	c0,1.4,0.2,2.7,0.5,4c0.3,1.3,0.9,2.4,1.6,3.3c0.7,1,1.7,1.7,2.9,2.3c1.2,0.6,2.6,0.8,4.3,0.8c2.3,0,4.6-0.6,6.8-1.7
	c2.3-1.1,4.5-2.6,6.8-4.5c2.2-1.8,4.4-3.9,6.4-6.2c2.1-2.3,3.9-4.6,5.7-6.8c1.7-2.3,3.3-4.4,4.6-6.4c1.3-2,2.4-3.7,3.1-5l-1-0.4
	c-1.9,3.2-4.2,6.5-6.7,9.9c-2.6,3.5-5.3,6.6-8,9.5c-2.8,2.9-5.6,5.2-8.4,7.1c-2.8,1.9-5.4,2.8-7.7,2.8c-1.3,0-2.2-0.7-2.8-2
	c-0.6-1.3-0.9-2.8-0.9-4.5c0-4,0.9-8.6,2.6-13.6c1.7-5,5.1-13,8-18.1c2.8-5.1,6-10.1,9.6-15c3.6-4.9,7.2-9.2,10.9-13
	c3.7-3.8,7.2-6.8,10.7-9.1c3.5-2.3,6.5-3.5,9-3.5c1.1,0,2,0.3,2.6,0.9c0.7,0.6,1.2,1.3,1.8,2.1c0.5,0.8,1,1.5,1.6,2.1
	c0.6,0.7,1.3,1,2.1,1c1,0,1.9-0.3,2.5-1c0.7-0.7,1-1.6,1-2.6C214.4,107.6,213.7,106.4,212.4,105.4z"/>
<g>
	<g>
		<rect x="87.6" y="164" class="st0" width="43.4" height="0.2"/>
	</g>
	<g>
		<rect x="171.9" y="164" class="st0" width="41.8" height="0.2"/>
	</g>
	<g>
		<path class="st0" d="M134.9,165.3c0.1,0.3,0.2,0.5,0.3,0.7c0.1,0.2,0.3,0.4,0.5,0.5c0.2,0.1,0.4,0.2,0.7,0.2c0.4,0,0.8-0.1,1-0.4
			s0.4-0.6,0.5-1.1h0.6c-0.1,0.7-0.3,1.2-0.7,1.6s-0.8,0.5-1.4,0.5c-0.4,0-0.7-0.1-1-0.2s-0.5-0.4-0.7-0.7s-0.3-0.6-0.4-1
			c-0.1-0.4-0.1-0.8-0.1-1.2c0-0.4,0-0.8,0.1-1.1c0.1-0.4,0.2-0.7,0.4-1c0.2-0.3,0.4-0.5,0.7-0.7c0.3-0.2,0.6-0.3,1-0.3
			c0.4,0,0.7,0.1,1,0.3c0.3,0.2,0.5,0.4,0.7,0.7c0.2,0.3,0.3,0.7,0.4,1.1s0.1,0.8,0.1,1.2h-3.6C134.8,164.8,134.8,165,134.9,165.3z
			 M137.7,163.1c-0.1-0.3-0.2-0.5-0.3-0.7c-0.1-0.2-0.3-0.4-0.5-0.5c-0.2-0.1-0.4-0.2-0.6-0.2c-0.2,0-0.4,0.1-0.6,0.2
			s-0.3,0.3-0.5,0.5c-0.1,0.2-0.2,0.4-0.3,0.7c-0.1,0.3-0.1,0.5-0.2,0.8h3.1C137.8,163.6,137.8,163.3,137.7,163.1z"/>
		<path class="st0" d="M141.9,162.5c-0.1-0.2-0.2-0.3-0.3-0.4c-0.1-0.1-0.2-0.2-0.4-0.2c-0.1,0-0.3-0.1-0.5-0.1
			c-0.1,0-0.3,0-0.4,0.1c-0.1,0-0.3,0.1-0.4,0.2c-0.1,0.1-0.2,0.2-0.3,0.3c-0.1,0.1-0.1,0.3-0.1,0.5c0,0.2,0,0.3,0.1,0.4
			c0.1,0.1,0.1,0.2,0.2,0.3c0.1,0.1,0.2,0.1,0.3,0.2c0.1,0,0.2,0.1,0.3,0.1l0.8,0.2c0.2,0,0.3,0.1,0.5,0.2c0.2,0.1,0.3,0.2,0.4,0.3
			c0.1,0.1,0.2,0.3,0.3,0.5c0.1,0.2,0.1,0.4,0.1,0.7c0,0.3-0.1,0.6-0.2,0.8s-0.3,0.4-0.4,0.5c-0.2,0.1-0.4,0.2-0.6,0.3
			c-0.2,0.1-0.4,0.1-0.7,0.1c-0.6,0-1-0.2-1.3-0.5c-0.3-0.3-0.5-0.9-0.6-1.6h0.6c0,0.5,0.2,0.9,0.4,1.1c0.3,0.2,0.6,0.4,1,0.4
			c0.1,0,0.3,0,0.4-0.1c0.1,0,0.3-0.1,0.4-0.2s0.2-0.2,0.3-0.3c0.1-0.1,0.1-0.3,0.1-0.5c0-0.2,0-0.3-0.1-0.4s-0.1-0.2-0.2-0.3
			s-0.2-0.1-0.3-0.2c-0.1-0.1-0.3-0.1-0.4-0.1l-0.7-0.2c-0.2-0.1-0.4-0.1-0.5-0.2c-0.2-0.1-0.3-0.2-0.4-0.3
			c-0.1-0.1-0.2-0.3-0.3-0.4c-0.1-0.2-0.1-0.4-0.1-0.6c0-0.3,0.1-0.6,0.2-0.8c0.1-0.2,0.2-0.4,0.4-0.5c0.2-0.1,0.4-0.2,0.6-0.3
			c0.2-0.1,0.4-0.1,0.6-0.1c0.2,0,0.5,0,0.7,0.1s0.4,0.2,0.5,0.4s0.3,0.4,0.4,0.6c0.1,0.2,0.1,0.5,0.2,0.8H142
			C142,162.9,142,162.7,141.9,162.5z"/>
		<path class="st0" d="M145.5,161.3v0.6h-1v4c0,0.2,0,0.4,0.1,0.6s0.2,0.2,0.4,0.2c0.2,0,0.3,0,0.5,0v0.6c-0.1,0-0.2,0-0.3,0
			c-0.1,0-0.2,0-0.3,0c-0.4,0-0.7-0.1-0.8-0.3s-0.2-0.5-0.2-1v-4h-0.8v-0.6h0.8v-1.8h0.6v1.8H145.5z"/>
		<path class="st0" d="M146.6,166h0.8v1.2h-0.8V166z"/>
		<path class="st0" d="M148.6,167.3c0-0.4,0.1-0.7,0.2-1.1c0.1-0.3,0.2-0.6,0.4-0.8c0.2-0.2,0.4-0.5,0.6-0.7
			c0.2-0.2,0.4-0.4,0.7-0.6s0.5-0.4,0.7-0.6c0.2-0.2,0.4-0.4,0.6-0.6c0.2-0.2,0.3-0.4,0.4-0.7c0.1-0.2,0.1-0.5,0.1-0.8
			c0-0.3,0-0.5-0.1-0.7c-0.1-0.2-0.2-0.4-0.3-0.5s-0.3-0.2-0.5-0.3c-0.2-0.1-0.4-0.1-0.6-0.1c-0.3,0-0.5,0.1-0.7,0.2
			c-0.2,0.1-0.3,0.3-0.5,0.5c-0.1,0.2-0.2,0.4-0.3,0.7c-0.1,0.3-0.1,0.5-0.1,0.8h-0.6c0-0.4,0-0.8,0.1-1.1s0.2-0.6,0.4-0.9
			c0.2-0.3,0.4-0.4,0.6-0.6c0.3-0.1,0.6-0.2,0.9-0.2c0.3,0,0.5,0,0.8,0.1s0.5,0.2,0.6,0.4s0.3,0.4,0.4,0.7s0.2,0.6,0.2,1
			c0,0.3,0,0.6-0.1,0.9c-0.1,0.3-0.2,0.5-0.4,0.8c-0.2,0.2-0.3,0.4-0.5,0.6c-0.2,0.2-0.4,0.4-0.6,0.5c-0.2,0.1-0.3,0.3-0.5,0.4
			c-0.2,0.2-0.4,0.3-0.6,0.5c-0.2,0.2-0.4,0.4-0.5,0.6c-0.1,0.2-0.2,0.5-0.3,0.7h3.6v0.7H148.6z"/>
		<path class="st0" d="M157.1,159.6c0.3,0.3,0.5,0.6,0.7,1c0.2,0.4,0.3,0.8,0.3,1.3s0.1,1,0.1,1.4c0,0.5,0,1-0.1,1.4
			s-0.2,0.9-0.3,1.3c-0.2,0.4-0.4,0.7-0.7,1c-0.3,0.3-0.7,0.4-1.1,0.4c-0.5,0-0.8-0.1-1.1-0.4c-0.3-0.3-0.5-0.6-0.7-1
			c-0.2-0.4-0.3-0.8-0.3-1.3c-0.1-0.5-0.1-1-0.1-1.4c0-0.5,0-1,0.1-1.4c0.1-0.5,0.2-0.9,0.3-1.3c0.2-0.4,0.4-0.7,0.7-1
			c0.3-0.3,0.7-0.4,1.1-0.4C156.4,159.2,156.8,159.3,157.1,159.6z M155,160.1c-0.2,0.2-0.4,0.5-0.5,0.9c-0.1,0.4-0.2,0.7-0.2,1.1
			c0,0.4-0.1,0.8-0.1,1.1c0,0.4,0,0.7,0.1,1.1c0,0.4,0.1,0.8,0.2,1.1c0.1,0.4,0.3,0.7,0.5,0.9c0.2,0.2,0.5,0.4,0.9,0.4
			c0.4,0,0.7-0.1,0.9-0.4c0.2-0.2,0.4-0.5,0.5-0.9c0.1-0.4,0.2-0.7,0.2-1.1c0-0.4,0.1-0.8,0.1-1.1c0-0.3,0-0.7-0.1-1.1
			c0-0.4-0.1-0.8-0.2-1.1c-0.1-0.4-0.3-0.6-0.5-0.9c-0.2-0.2-0.5-0.4-0.9-0.4C155.6,159.8,155.3,159.9,155,160.1z"/>
		<path class="st0" d="M162.1,159.6c0.3,0.3,0.5,0.6,0.7,1c0.2,0.4,0.3,0.8,0.3,1.3c0.1,0.5,0.1,1,0.1,1.4c0,0.5,0,1-0.1,1.4
			c-0.1,0.5-0.2,0.9-0.3,1.3c-0.2,0.4-0.4,0.7-0.7,1c-0.3,0.3-0.7,0.4-1.1,0.4c-0.5,0-0.8-0.1-1.1-0.4c-0.3-0.3-0.5-0.6-0.7-1
			c-0.2-0.4-0.3-0.8-0.3-1.3c-0.1-0.5-0.1-1-0.1-1.4c0-0.5,0-1,0.1-1.4c0.1-0.5,0.2-0.9,0.3-1.3c0.2-0.4,0.4-0.7,0.7-1
			c0.3-0.3,0.7-0.4,1.1-0.4C161.5,159.2,161.9,159.3,162.1,159.6z M160.1,160.1c-0.2,0.2-0.4,0.5-0.5,0.9c-0.1,0.4-0.2,0.7-0.2,1.1
			c0,0.4-0.1,0.8-0.1,1.1c0,0.4,0,0.7,0.1,1.1c0,0.4,0.1,0.8,0.2,1.1c0.1,0.4,0.3,0.7,0.5,0.9c0.2,0.2,0.5,0.4,0.9,0.4
			s0.7-0.1,0.9-0.4c0.2-0.2,0.4-0.5,0.5-0.9c0.1-0.4,0.2-0.7,0.2-1.1c0-0.4,0.1-0.8,0.1-1.1c0-0.3,0-0.7-0.1-1.1
			c0-0.4-0.1-0.8-0.2-1.1c-0.1-0.4-0.3-0.6-0.5-0.9c-0.2-0.2-0.5-0.4-0.9-0.4S160.3,159.9,160.1,160.1z"/>
		<path class="st0" d="M167.2,159.6c0.3,0.3,0.5,0.6,0.7,1c0.2,0.4,0.3,0.8,0.3,1.3c0.1,0.5,0.1,1,0.1,1.4c0,0.5,0,1-0.1,1.4
			c-0.1,0.5-0.2,0.9-0.3,1.3c-0.2,0.4-0.4,0.7-0.7,1c-0.3,0.3-0.7,0.4-1.1,0.4c-0.5,0-0.8-0.1-1.1-0.4c-0.3-0.3-0.5-0.6-0.7-1
			c-0.2-0.4-0.3-0.8-0.3-1.3c-0.1-0.5-0.1-1-0.1-1.4c0-0.5,0-1,0.1-1.4c0.1-0.5,0.2-0.9,0.3-1.3c0.2-0.4,0.4-0.7,0.7-1
			c0.3-0.3,0.7-0.4,1.1-0.4C166.6,159.2,166.9,159.3,167.2,159.6z M165.2,160.1c-0.2,0.2-0.4,0.5-0.5,0.9c-0.1,0.4-0.2,0.7-0.2,1.1
			c0,0.4-0.1,0.8-0.1,1.1c0,0.4,0,0.7,0.1,1.1c0,0.4,0.1,0.8,0.2,1.1s0.3,0.7,0.5,0.9c0.2,0.2,0.5,0.4,0.9,0.4s0.7-0.1,0.9-0.4
			c0.2-0.2,0.4-0.5,0.5-0.9c0.1-0.4,0.2-0.7,0.2-1.1c0-0.4,0.1-0.8,0.1-1.1c0-0.3,0-0.7-0.1-1.1c0-0.4-0.1-0.8-0.2-1.1
			c-0.1-0.4-0.3-0.6-0.5-0.9c-0.2-0.2-0.5-0.4-0.9-0.4S165.4,159.9,165.2,160.1z"/>
	</g>
</g>
<g>
	<g>
		<path class="st0" d="M91.4,131.7v7.2h4.4v-7.2h3.8v18.8h-3.8v-8.3h-4.4v8.3h-3.8v-18.8H91.4z"/>
		<path class="st0" d="M115.9,134.8h-6.7v4.4h6.3v3.1h-6.3v5h7v3.1h-10.8v-18.8h10.5V134.8z"/>
		<path class="st0" d="M127.5,131.7l2.7,13.3h0.1l2.7-13.3h5.6v18.8h-3.5v-15h-0.1l-3.3,15h-2.9l-3.3-15h-0.1v15h-3.5v-18.8H127.5z"
			/>
		<path class="st0" d="M150,131.7l2.7,13.3h0.1l2.7-13.3h5.6v18.8h-3.5v-15h-0.1l-3.3,15h-2.9l-3.3-15h-0.1v15h-3.5v-18.8H150z"/>
	</g>
	<g>
		<path class="st0" d="M177.3,134.8h-6.7v4.4h6.3v3.1h-6.3v5h7v3.1h-10.8v-18.8h10.5V134.8z"/>
		<path class="st0" d="M205.6,145.2c0,0.4,0,0.8,0.1,1.2c0.1,0.4,0.2,0.7,0.4,0.9c0.2,0.2,0.5,0.4,0.8,0.6c0.3,0.1,0.7,0.2,1.2,0.2
			c0.6,0,1.1-0.2,1.6-0.6c0.5-0.4,0.7-1,0.7-1.7c0-0.4-0.1-0.8-0.2-1.1c-0.1-0.3-0.3-0.6-0.6-0.8c-0.3-0.2-0.6-0.5-1-0.7
			c-0.4-0.2-1-0.4-1.6-0.6c-0.8-0.3-1.6-0.6-2.2-0.9c-0.6-0.3-1.1-0.7-1.5-1.2c-0.4-0.4-0.7-1-0.9-1.6c-0.2-0.6-0.3-1.3-0.3-2
			c0-1.9,0.5-3.2,1.6-4.2c1-0.9,2.5-1.4,4.3-1.4c0.8,0,1.6,0.1,2.3,0.3c0.7,0.2,1.3,0.5,1.8,0.9c0.5,0.4,0.9,0.9,1.2,1.6
			c0.3,0.6,0.4,1.4,0.4,2.3v0.5h-3.6c0-0.9-0.2-1.6-0.5-2.1c-0.3-0.5-0.8-0.7-1.6-0.7c-0.4,0-0.8,0.1-1.1,0.2
			c-0.3,0.1-0.5,0.3-0.7,0.5c-0.2,0.2-0.3,0.4-0.3,0.7c-0.1,0.3-0.1,0.5-0.1,0.8c0,0.6,0.1,1.1,0.4,1.5c0.2,0.4,0.8,0.8,1.6,1.1
			l2.9,1.3c0.7,0.3,1.3,0.6,1.8,1c0.5,0.3,0.8,0.7,1.1,1.1c0.3,0.4,0.5,0.8,0.6,1.3c0.1,0.5,0.2,1,0.2,1.6c0,2-0.6,3.4-1.7,4.3
			c-1.1,0.9-2.7,1.4-4.8,1.4c-2.1,0-3.7-0.5-4.6-1.4c-0.9-0.9-1.4-2.3-1.4-4v-0.8h3.8V145.2z"/>
		<g>
			<path class="st1" d="M188.7,139.9c0.9,0,1.6-0.2,2.1-0.6c0.5-0.4,0.7-1.2,0.7-2.2c0-1.7-0.9-2.6-2.6-2.6h-0.6v5.4H188.7z"/>
			<polygon class="st0" points="187.1,139.9 187.1,134.5 187.1,131.7 183.3,131.7 183.3,146.4 187.1,146.4 187.1,145 187.1,142.5 
							"/>
			<path class="st0" d="M195.4,149.2c-0.1-0.5-0.1-1.3-0.2-2.3c0-0.5,0-1-0.1-1.4c0-0.4,0-0.8-0.1-1.1c-0.1-1.1-0.4-1.8-0.8-2.3
				c-0.4-0.5-1.1-0.8-2.1-0.9v-0.1c1.1-0.2,1.9-0.7,2.4-1.5c0.5-0.8,0.8-1.8,0.8-3.1c0-1.6-0.4-2.8-1.3-3.6
				c-0.9-0.8-2.1-1.2-3.7-1.2h-2v2.8h0.6c1.8,0,2.6,0.9,2.6,2.6c0,1-0.2,1.7-0.7,2.2c-0.5,0.4-1.2,0.6-2.1,0.6h-0.4v2.6h0.9
				c0.8,0,1.3,0.2,1.7,0.6c0.3,0.4,0.5,1,0.6,1.7l0.1,3.6c0,0.4,0.1,0.7,0.1,1.1c0.1,0.3,0.2,0.6,0.4,0.9h4.1v-0.2
				C195.7,150.1,195.5,149.8,195.4,149.2z"/>
		</g>
		<circle class="st0" cx="185.2" cy="148.9" r="1.9"/>
	</g>
</g>
</svg>
